:version 1.10
:name ASF
:units
  mass 1
  length 1
  angle deg
:documentation
  ASF file generated by Kaydara
:root
  axis xyz
  order  tx ty tz rx ry rz
  position 0 0 0
  orientation 0 0 0
:bonedata
  begin
    id 1
    name lfemurDummy
    direction 0.61522 -0.761478 0.204097
    length 5.68318
    axis 0 -0 0 xyz
  end
  begin
    id 2
    name lfemur
    direction 0.34202 -0.939693 -5.84747e-008
    length 16.9147
    axis 0 -0 20 xyz
    dof rx ry rz
    limits( -inf , inf )
( -inf , inf )
( -inf , inf )

  end
  begin
    id 3
    name ltibia
    direction 0.34202 -0.939693 1.20839e-009
    length 18.0532
    axis 0 -0 20 xyz
    dof rz ry rx
    limits( -inf , inf )
( -inf , inf )
( -inf , inf )

  end
  begin
    id 4
    name lfoot
    direction 0.0841971 -0.23133 0.969225
    length 5.23822
    axis -90 7.62852e-016 20 xyz
    dof ry rx rz
    limits( -inf , inf )
( -inf , inf )
( -inf , inf )

  end
  begin
    id 5
    name ltoes
    direction 0 0 0
    length 0
    axis 0 0 0 xyz
    dof rz ry rx
    limits( -inf , inf )
( -inf , inf )
( -inf , inf )

  end
  begin
    id 6
    name rfemurDummy
    direction -0.625247 -0.75382 0.202044
    length 5.74091
    axis 0 -0 0 xyz
  end
  begin
    id 7
    name rfemur
    direction -0.34202 -0.939693 -1.47013e-008
    length 16.4922
    axis 0 -0 -20 xyz
    dof rx ry rz
    limits( -inf , inf )
( -inf , inf )
( -inf , inf )

  end
  begin
    id 8
    name rtibia
    direction -0.34202 -0.939693 -7.74345e-010
    length 18.2421
    axis 0 -0 -20 xyz
    dof rz ry rx
    limits( -inf , inf )
( -inf , inf )
( -inf , inf )

  end
  begin
    id 9
    name rfoot
    direction -0.124331 -0.341598 0.931586
    length 5.45787
    axis -90 -7.62852e-016 -20 xyz
    dof ry rx rz
    limits( -inf , inf )
( -inf , inf )
( -inf , inf )

  end
  begin
    id 10
    name rtoes
    direction 0 0 0
    length 0
    axis 0 0 0 xyz
    dof rz ry rx
    limits( -inf , inf )
( -inf , inf )
( -inf , inf )

  end
  begin
    id 11
    name lowerbackDummy
    direction 0 0 0
    length 0
    axis 0 -0 0 xyz
  end
  begin
    id 12
    name lowerback
    direction -0.0218484 0.994884 -0.0986304
    length 4.45607
    axis 0 -0 0 xyz
    dof rx ry rz
    limits( -inf , inf )
( -inf , inf )
( -inf , inf )

  end
  begin
    id 13
    name upperback
    direction -0.00973057 0.999717 -0.0217111
    length 4.47449
    axis 0 -0 0 xyz
    dof rx ry rz
    limits( -inf , inf )
( -inf , inf )
( -inf , inf )

  end
  begin
    id 14
    name thorax
    direction -0.000928171 0.999699 0.0245198
    length 4.50973
    axis 0 -0 0 xyz
    dof rx ry rz
    limits( -inf , inf )
( -inf , inf )
( -inf , inf )

  end
  begin
    id 15
    name rclavicle
    direction -0.9009 0.425937 -0.0834055
    length 7.28587
    axis 0 -0 0 xyz
    dof rx ry rz
    limits( -inf , inf )
( -inf , inf )
( -inf , inf )

  end
  begin
    id 16
    name rhumerus
    direction -1 -2.23604e-007 -1.42637e-007
    length 13.5704
    axis 180 30 90 xyz
    dof rx ry rz
    limits( -inf , inf )
( -inf , inf )
( -inf , inf )

  end
  begin
    id 17
    name rradius
    direction -1 5.68281e-008 -4.4952e-007
    length 8.06782
    axis 180 30 90 xyz
    dof rz ry rx
    limits( -inf , inf )
( -inf , inf )
( -inf , inf )

  end
  begin
    id 18
    name rwrist
    direction -1 1.51393e-007 1.38143e-007
    length 4.03391
    axis -90 -90 0 xyz
    dof rz rx ry
    limits( -inf , inf )
( -inf , inf )
( -inf , inf )

  end
  begin
    id 19
    name rthumb
    direction 0 0 0
    length 0
    axis 0 0 0 xyz
    dof ry rx rz
    limits( -inf , inf )
( -inf , inf )
( -inf , inf )

  end
  begin
    id 20
    name rhand
    direction -1 -3.34077e-007 -5.59631e-007
    length 1.29744
    axis -90 -90 0 xyz
    dof ry rx rz
    limits( -inf , inf )
( -inf , inf )
( -inf , inf )

  end
  begin
    id 21
    name rfingers
    direction 0 0 0
    length 0
    axis 0 0 0 xyz
    dof rz ry rx
    limits( -inf , inf )
( -inf , inf )
( -inf , inf )

  end
  begin
    id 22
    name lclavicle
    direction 0.940017 0.332249 -0.0773232
    length 8.29589
    axis 0 -0 0 xyz
    dof rx ry rz
    limits( -inf , inf )
( -inf , inf )
( -inf , inf )

  end
  begin
    id 23
    name lhumerus
    direction 1 7.41158e-008 -1.44768e-008
    length 12.0042
    axis 180 -30 -90 xyz
    dof rx ry rz
    limits( -inf , inf )
( -inf , inf )
( -inf , inf )

  end
  begin
    id 24
    name lradius
    direction 1 -1.32972e-007 3.10821e-007
    length 8.1902
    axis 180 -30 -90 xyz
    dof rz ry rx
    limits( -inf , inf )
( -inf , inf )
( -inf , inf )

  end
  begin
    id 25
    name lwrist
    direction 1 3.08957e-007 4.01394e-007
    length 4.09509
    axis -90 90 0 xyz
    dof rz rx ry
    limits( -inf , inf )
( -inf , inf )
( -inf , inf )

  end
  begin
    id 26
    name lthumb
    direction 0 0 0
    length 0
    axis 0 0 0 xyz
    dof ry rx rz
    limits( -inf , inf )
( -inf , inf )
( -inf , inf )

  end
  begin
    id 27
    name lhand
    direction 1 -1.64125e-007 -6.99514e-007
    length 1.37229
    axis -90 90 0 xyz
    dof ry rx rz
    limits( -inf , inf )
( -inf , inf )
( -inf , inf )

  end
  begin
    id 28
    name lfingers
    direction 0 0 0
    length 0
    axis 0 0 0 xyz
    dof rz ry rx
    limits( -inf , inf )
( -inf , inf )
( -inf , inf )

  end
  begin
    id 29
    name lowerneck
    direction -0.030798 0.998024 0.0547665
    length 3.93918
    axis 0 -0 0 xyz
    dof rx ry rz
    limits( -inf , inf )
( -inf , inf )
( -inf , inf )

  end
  begin
    id 30
    name upperneck
    direction 0.0531588 0.996611 -0.0627736
    length 3.95491
    axis 0 -0 0 xyz
    dof rx ry rz
    limits( -inf , inf )
( -inf , inf )
( -inf , inf )

  end
  begin
    id 31
    name head
    direction 0 0 0
    length 0
    axis 0 0 0 xyz
    dof rx ry rz
    limits( -inf , inf )
( -inf , inf )
( -inf , inf )

  end
:hierarchy
  begin
    root lfemurDummy rfemurDummy lowerbackDummy
    lfemurDummy lfemur
    lfemur ltibia
    ltibia lfoot
    lfoot ltoes
    rfemurDummy rfemur
    rfemur rtibia
    rtibia rfoot
    rfoot rtoes
    lowerbackDummy lowerback
    lowerback upperback
    upperback thorax
    thorax rclavicle lclavicle lowerneck
    rclavicle rhumerus
    rhumerus rradius
    rradius rwrist
    rwrist rthumb rhand
    rhand rfingers
    lclavicle lhumerus
    lhumerus lradius
    lradius lwrist
    lwrist lthumb lhand
    lhand lfingers
    lowerneck upperneck
    upperneck head
  end

:SAMPLES-PER-SECOND 30
:FULLY-SPECIFIED
:DEGREES
47
root  17.70540072 29.56044355 3.967622321 -31.89300537 -67.35199738 29.81700134
lowerback  28.47920036 3.421570063 5.660820007
upperback  14.59070015 4.679729939 6.930699825
thorax  0.6538879871 1.878090024 3.141330004
lowerneck  11.08689976 4.412129879 10.9385004
upperneck  13.21710014 5.414669991 9.071269989
head  2.484289885 3.080120087 1.054880023
lclavicle  0 -9.442270133e-015 7.951389973e-016
lhumerus  23.32649994 -3.312629938 70.60489655
lradius  2.538750997e-031 -2.45429978e-031 135.9689941
lwrist  -1.412450015e-030 -1.765562519e-031 19.75300026
lhand  -1.496451383e-031 -27.76390076 20.11240005
lfingers  90 7.125020027 -90
lthumb  89.89689403 5.08795885 91.16245106
rclavicle  0 -9.442270133e-015 7.951389973e-016
rhumerus  49.94710159 10.15120029 -75.02619934
rradius  -4.177440984e-032 3.506327695e-031 96.79419708
rwrist  3.531125038e-031 1.059337512e-030 -66.9484024
rhand  -7.920061211e-032 -33.2840004 9.303460121
rfingers  -90 -7.125020027 -90
rthumb  -92.93752616 -24.25625642 -97.11982154
rfemur  -45.54059982 6.626299858 -28.10180092
rtibia  -0 0 89.35790253
rfoot  -0 -21.07760048 11.73859978
rtoes  5.373923086 19.29304026 -105.8922705
lfemur  -39.22900009 5.912539959 -10.92500019
ltibia  -0 0 93.86340332
lfoot  5.440045414e-032 -35.7696991 3.183239937
ltoes  -4.250644065 -19.5611806 -102.515957
48
root  17.69388905 29.5280006 4.035644456 -31.11799622 -67.35299683 28.27900696
lowerback  28.11870003 3.497149944 4.68596983
upperback  14.76539993 4.500239849 7.563869953
thorax  0.8816990256 1.696910024 4.458899975
lowerneck  10.98250008 4.344329834 9.926799774
upperneck  13.17469978 5.273789883 8.863200188
head  2.448920012 2.971879959 1.147600055
lclavicle  0 -9.442270133e-015 7.951389973e-016
lhumerus  22.33390045 -4.875939846 73.49279785
lradius  2.519483316e-031 -2.474075152e-031 135.5209961
lwrist  -7.062250077e-031 -8.827812596e-032 19.16309929
lhand  -1.496451383e-031 -27.76390076 20.11240005
lfingers  90 7.125020027 -90
lthumb  89.89689403 5.08795885 91.16245106
rclavicle  0 -9.442270133e-015 7.951389973e-016
rhumerus  48.10639954 10.5958004 -74.32260132
rradius  -3.906094287e-032 3.509454133e-031 96.35099792
rwrist  3.531125038e-031 7.062250077e-031 -67.21990204
rhand  -7.920061211e-032 -33.2840004 9.303460121
rfingers  -90 -7.125020027 -90
rthumb  -92.93752616 -24.25625642 -97.11982154
rfemur  -44.99890137 6.765500069 -27.58589935
rtibia  -0 0 89.69029999
rfoot  -0 -20.27479935 11.87450027
rtoes  5.373923086 19.29304026 -105.8922705
lfemur  -38.62639999 5.859370232 -10.32610035
ltibia  -0 0 94.11260223
lfoot  5.457556638e-032 -36.02410126 3.141469955
ltoes  -4.250644065 -19.5611806 -102.515957
49
root  17.66082283 29.52666696 4.0948222 -30.78599548 -67.29199982 27.11099243
lowerback  27.75790024 3.609380007 3.45243001
upperback  14.96500015 4.312039852 8.155380249
thorax  1.138689995 1.492239952 5.89151001
lowerneck  10.84379959 4.276090145 8.901209831
upperneck  13.05210018 5.160749912 8.448439598
head  2.398669958 2.872829914 1.175400019
lclavicle  0 -9.442270133e-015 7.951389973e-016
lhumerus  21.46619987 -5.782889843 76.31860352
lradius  2.490992634e-031 -2.502758425e-031 134.8650055
lwrist  -7.062250077e-031 -0 18.59770012
lhand  -1.496451383e-031 -27.76390076 20.11240005
lfingers  90 7.125020027 -90
lthumb  89.89689403 5.08795885 91.16245106
rclavicle  0 -9.442270133e-015 7.951389973e-016
rhumerus  46.28939819 11.18630028 -73.56629944
rradius  -3.662223988e-032 3.512082743e-031 95.95300293
rwrist  7.062250077e-031 3.531125038e-031 -67.48090363
rhand  -7.920061211e-032 -33.2840004 9.303460121
rfingers  -90 -7.125020027 -90
rthumb  -92.93752616 -24.25625642 -97.11982154
rfemur  -44.26119995 7.121550083 -27.2052002
rtibia  -0 0 89.88030243
rfoot  -0 -19.5237999 12.06470013
rtoes  5.373923086 19.29304026 -105.8922705
lfemur  -37.73749924 5.774940014 -9.914620399
ltibia  -0 0 94.17279816
lfoot  5.482623775e-032 -36.38280106 3.02154994
ltoes  -4.250644065 -19.5611806 -102.515957
50
root  17.61771074 29.54155629 4.144422276 -30.52099609 -67.12999725 26.1269989
lowerback  27.36070061 3.69039011 2.140089989
upperback  15.06830025 4.094820023 8.64136982
thorax  1.328629971 1.273309946 7.270589828
lowerneck  10.53439999 4.242899895 7.805980206
upperneck  12.97399998 5.058229923 8.138319969
head  2.389580011 2.783679962 1.255239964
lclavicle  0 -9.442270133e-015 7.951389973e-016
lhumerus  20.69650078 -6.22894001 78.88330078
lradius  2.458372884e-031 -2.534807054e-031 134.1230011
lwrist  -7.062250077e-031 -8.827812596e-032 18.25839996
lhand  -1.496451383e-031 -27.76390076 20.11240005
lfingers  90 7.125020027 -90
lthumb  89.89689403 5.08795885 91.16245106
rclavicle  0 -9.442270133e-015 7.951389973e-016
rhumerus  44.4367981 11.90450001 -72.94339752
rradius  -3.425898728e-032 3.514466704e-031 95.56759644
rwrist  7.062250077e-031 7.062250077e-031 -67.57769775
rhand  -7.920061211e-032 -33.2840004 9.303460121
rfingers  -90 -7.125020027 -90
rthumb  -92.93752616 -24.25625642 -97.11982154
rfemur  -43.52199936 7.419559956 -26.96660042
rtibia  -0 0 89.97090149
rfoot  -0 -18.74379921 12.69960022
rtoes  5.373923086 19.29304026 -105.8922705
lfemur  -36.8905983 5.727660179 -9.661700249
ltibia  -0 0 94.09529877
lfoot  5.50802415e-032 -36.73989868 3.134989977
ltoes  -4.250644065 -19.5611806 -102.515957
51
root  17.57937754 29.5651113 4.185355554 -29.40800476 -67.01999664 24.41000366
lowerback  26.99010086 3.662460089 1.115429997
upperback  14.97780037 3.843990088 9.147859573
thorax  1.331390023 1.060570002 8.523019791
lowerneck  10.12440014 4.323540211 6.432600021
upperneck  13.12769985 5.025459766 8.165909767
head  2.461489916 2.731600046 1.499760032
lclavicle  0 -9.442270133e-015 7.951389973e-016
lhumerus  19.89290047 -6.369550228 81.35810089
lradius  2.425654538e-031 -2.566134076e-031 133.3880005
lwrist  -7.062250077e-031 8.827812596e-032 18.57329941
lhand  -1.496451383e-031 -27.76390076 20.11240005
lfingers  90 7.125020027 -90
lthumb  89.89689403 5.08795885 91.16245106
rclavicle  0 -9.442270133e-015 7.951389973e-016
rhumerus  42.57709885 12.79349995 -72.18440247
rradius  -3.166284942e-032 3.516900686e-031 95.14450073
rwrist  3.531125038e-031 7.062250077e-031 -67.79199982
rhand  -7.920061211e-032 -33.2840004 9.303460121
rfingers  -90 -7.125020027 -90
rthumb  -92.93752616 -24.25625642 -97.11982154
rfemur  -42.83119965 7.689280033 -26.39109993
rtibia  -0 0 89.95580292
rfoot  -0 -17.9538002 13.38599968
rtoes  5.373923086 19.29304026 -105.8922705
lfemur  -36.28969955 5.778999805 -9.111949921
ltibia  -0 0 93.97039795
lfoot  5.519298223e-032 -36.89640045 3.905770063
ltoes  -4.250644065 -19.5611806 -102.515957
52
root  17.53217742 29.61911179 4.226755533 -28.56700134 -66.82900238 22.85800171
lowerback  26.68129921 3.571140051 0.1380179971
upperback  14.93280029 3.518569946 9.536000252
thorax  1.402289987 0.8133029938 9.647600174
lowerneck  9.787460327 4.519859791 5.070569992
upperneck  13.39109993 5.170020103 8.010430336
head  2.563309908 2.764899969 1.686769962
lclavicle  0 -9.442270133e-015 7.951389973e-016
lhumerus  19.37999916 -6.257820129 83.60849762
lradius  2.393987009e-031 -2.595702263e-031 132.6849976
lwrist  -7.062250077e-031 -0 19.23570061
lhand  -1.496451383e-031 -27.76390076 20.11240005
lfingers  90 7.125020027 -90
lthumb  89.89689403 5.08795885 91.16245106
rclavicle  0 -9.442270133e-015 7.951389973e-016
rhumerus  40.99829865 13.78540039 -71.46800232
rradius  -2.860732363e-032 3.519517885e-031 94.64689636
rwrist  7.062250077e-031 3.531125038e-031 -67.74289703
rhand  -7.920061211e-032 -33.2840004 9.303460121
rfingers  -90 -7.125020027 -90
rthumb  -92.93752616 -24.25625642 -97.11982154
rfemur  -41.8791008 8.115519524 -25.84539986
rtibia  -0 0 89.76499939
rfoot  -0 -17.28960037 13.81999969
rtoes  5.373923086 19.29304026 -105.8922705
lfemur  -35.47280121 5.750050068 -8.705320358
ltibia  -0 0 93.71710205
lfoot  5.523832229e-032 -36.95899963 4.980010033
ltoes  -4.250644065 -19.5611806 -102.515957
53
root  17.46611107 29.71200117 4.269844341 -27.92799377 -66.52100372 21.55200195
lowerback  26.22130013 3.424309969 -0.8093060255
upperback  14.93830013 3.121939898 9.808250427
thorax  1.645239949 0.5298539996 10.65289974
lowerneck  9.529350281 4.760069847 3.733930111
upperneck  13.5632 5.427100182 7.604149818
head  2.625639915 2.843640089 1.784780025
lclavicle  0 -9.442270133e-015 7.951389973e-016
lhumerus  19.24360085 -5.933469772 85.42040253
lradius  2.3594841e-031 -2.627104646e-031 131.9279938
lwrist  -7.062250077e-031 8.827812596e-032 20.01300049
lhand  -1.496451383e-031 -27.76390076 20.11240005
lfingers  90 7.125020027 -90
lthumb  89.89689403 5.08795885 91.16245106
rclavicle  0 -9.442270133e-015 7.951389973e-016
rhumerus  39.6955986 14.8263998 -70.90820313
rradius  -2.628848507e-032 3.521325829e-031 94.26950073
rwrist  3.531125038e-031 3.531125038e-031 -67.62999725
rhand  -7.920061211e-032 -33.2840004 9.303460121
rfingers  -90 -7.125020027 -90
rthumb  -92.93752616 -24.25625642 -97.11982154
rfemur  -40.71989822 8.474269867 -25.41970062
rtibia  -0 0 89.38289642
rfoot  -0 -16.6996994 14.21829987
rtoes  5.373923086 19.29304026 -105.8922705
lfemur  -34.6128006 5.569190025 -8.502169609
ltibia  -0 0 93.35410309
lfoot  5.52711479e-032 -37.00419998 5.803420067
ltoes  -4.250644065 -19.5611806 -102.515957
54
root  17.3953995 29.81266713 4.303555601 -26.69999695 -66.27600098 19.7749939
lowerback  25.68950081 3.237129927 -1.608669996
upperback  14.83329964 2.725800037 10.17380047
thorax  1.822329998 0.2552730143 11.68480015
lowerneck  9.20911026 5.014729977 2.238219976
upperneck  13.68459988 5.708930016 7.19588995
head  2.675400019 2.924959898 1.911000013
lclavicle  0 -9.442270133e-015 7.951389973e-016
lhumerus  19.08769989 -5.382750034 87.02179718
lradius  2.324570028e-031 -2.658047822e-031 131.1710052
lwrist  -1.412450015e-030 1.765562519e-031 20.74230003
lhand  -1.496451383e-031 -27.76390076 20.11240005
lfingers  90 7.125020027 -90
lthumb  89.89689403 5.08795885 91.16245106
rclavicle  0 -9.442270133e-015 7.951389973e-016
rhumerus  38.50329971 16.08760071 -70.12290192
rradius  -2.605862819e-032 3.521496674e-031 94.23210144
rwrist  3.531125038e-031 7.062250077e-031 -67.85250092
rhand  -7.920061211e-032 -33.2840004 9.303460121
rfingers  -90 -7.125020027 -90
rthumb  -92.93752616 -24.25625642 -97.11982154
rfemur  -39.61669922 8.748069763 -24.75359917
rtibia  -0 0 88.90129852
rfoot  -0 -16.11919975 14.63669968
rtoes  5.373923086 19.29304026 -105.8922705
lfemur  -33.98130035 5.367650032 -8.003370285
ltibia  -0 0 92.9681015
lfoot  5.53026628e-032 -37.04750061 5.949069977
ltoes  -4.250644065 -19.5611806 -102.515957
